Cop Out (2010) 1080P       

Verenigde Staten
Actie / Komedie
107 minuten

geregisseerd door Kevin Smith
met Bruce Willis, Tracy Morgan en Seann William Scott

Twee ervaren partners van de New York Police Department moeten het opnemen tegen een meedogenloze crimineel in hun jacht op een zeldzaam honkbalkaartje. Voor veteraan Jimmy (Bruce Willis) is het kaartje zijn enige hoop te kunnen betalen voor de aankomende bruiloft van zijn dochter (Michelle Trachtenberg). Hij wordt bij deze bijzondere missie vergezeld door Paul (Tracy Morgan).


English

Storyline
A comedy about a veteran NYPD cop whose rare baseball card is stolen. Since it's his only hope to pay for his daughter's upcoming wedding, he recruits his partner to track down the thief, a memorabilia-obsessed gangster. 


Filmgegevens
 Regie: Kevin Smith
 Acteurs: Bruce Willis, Tracy Morgan en Sean William Scott
 Genre: Actie / Komedie
 Audio: Engels DTS 5.1
 Subtitels: Nederlands custom (instelbaar)
 Beeld: 16:9
 Speelduur: 107 minuten
 Land: Verenigde Staten
 IMDB Beoordeling: 5.9/10 (7,773 votes)


Thanks ....Just_4_fun_Team
Format                           : Matroska
File size                        : 7.94 GiB
Duration                         : 1h 47mn
Overall bit rate                 : 10.6 Mbps
Encoded date                     : UTC 2010-07-05 19:03:48
Writing application              : mkvmerge v4.1.1 ('Bouncin' Back') gemaakt op Jul  3 2010 22:54:08
Writing library                  : libebml v1.0.0 + libmatroska v1.0.0

Video
ID                               : 1
Format                           : AVC
Format/Info                      : Advanced Video Codec
Format profile                   : High@L4.1
Format settings, CABAC           : Yes
Format settings, ReFrames        : 5 frames
Muxing mode                      : Container profile=Unknown@4.1
Codec ID                         : V_MPEG4/ISO/AVC
Duration                         : 1h 47mn
Bit rate                         : 9 072 Kbps
Width                            : 1 920 pixels
Height                           : 800 pixels
Display aspect ratio             : 2.40:1
Frame rate                       : 23.976 fps
Color space                      : YUV
Chroma subsampling               : 4:2:0
Bit depth                        : 8 bits
Scan type                        : Progressive
Bits/(Pixel*Frame)               : 0.246
Stream size                      : 6.65 GiB (84%)
Writing library                  : x264 core 100 r1659 57b2e56
Encoding settings                : cabac=1 / ref=5 / deblock=1:0:0 / analyse=0x3:0x133 / me=umh / subme=7 / psy=1 / psy_rd=1.00:0.00 / mixed_ref=1 / me_range=16 / chroma_me=1 / trellis=1 / 8x8dct=1 / cqm=0 / deadzone=21,11 / fast_pskip=0 / chroma_qp_offset=-2 / threads=12 / sliced_threads=0 / nr=0 / decimate=1 / interlaced=0 / constrained_intra=0 / bframes=3 / b_pyramid=2 / b_adapt=1 / b_bias=0 / direct=3 / weightb=1 / open_gop=0 / weightp=2 / keyint=240 / keyint_min=24 / scenecut=40 / intra_refresh=0 / rc_lookahead=40 / rc=2pass / mbtree=1 / bitrate=9072 / ratetol=1.0 / qcomp=0.60 / qpmin=10 / qpmax=51 / qpstep=4 / cplxblur=20.0 / qblur=0.5 / ip_ratio=1.40 / aq=1:1.00
Language                         : English

Audio
ID                               : 2
Format                           : DTS
Format/Info                      : Digital Theater Systems
Muxing mode                      : Header stripping
Codec ID                         : A_DTS
Duration                         : 1h 47mn
Bit rate mode                    : Constant
Bit rate                         : 1 510 Kbps
Channel(s)                       : 6 channels
Channel positions                : Front: L C R, Side: L R, LFE
Sampling rate                    : 48.0 KHz
Bit depth                        : 24 bits
Video delay                      : 11ms
Stream size                      : 1.13 GiB (14%)
Title                            : English DTS 1509kbps
Language                         : English

Text #1
ID                               : 3
Format                           : UTF-8
Codec ID                         : S_TEXT/UTF8
Codec ID/Info                    : UTF-8 Plain Text
Title                            : English
Language                         : English

Text #2
ID                               : 4
Format                           : UTF-8
Codec ID                         : S_TEXT/UTF8
Codec ID/Info                    : UTF-8 Plain Text
Title                            : Dutch
Language                         : Dutch

Menu
00:00:00.000                     : en:00:00:00.000
00:06:33.643                     : en:00:06:33.643
00:10:36.636                     : en:00:10:36.636
00:14:38.920                     : en:00:14:38.920
00:17:01.395                     : en:00:17:01.395
00:22:19.713                     : en:00:22:19.713
00:25:44.418                     : en:00:25:44.418
00:29:43.115                     : en:00:29:43.115
00:33:50.111                     : en:00:33:50.111
00:36:54.796                     : en:00:36:54.796
00:40:41.189                     : en:00:40:41.189
00:43:01.454                     : en:00:43:01.454
00:46:49.849                     : en:00:46:49.849
00:49:57.620                     : en:00:49:57.620
00:55:25.864                     : en:00:55:25.864
01:00:29.501                     : en:01:00:29.501
01:04:23.693                     : en:01:04:23.693
01:07:48.356                     : en:01:07:48.356
01:14:10.654                     : en:01:14:10.654
01:17:54.962                     : en:01:17:54.962
01:21:38.268                     : en:01:21:38.268
01:26:21.468                     : en:01:26:21.468
01:29:27.779                     : en:01:29:27.779
01:34:02.345                     : en:01:34:02.345
01:37:32.972                     : en:01:37:32.972
01:40:43.371                     : en:01:40:43.371




Spotinformatie 
Categorie : Beeld 
Formaat : x264HD 
Bron : Retail
 
Ondertitels : Nederlands (instelbaar)
 
Genre : Actie
Komedie
 
Weblink : http://www.moviemeter.nl/film/58273
Weblink : http://www.imdb.com/title/tt1385867 
  
*****************************************

Brought to you by 
2Lions Team

meer zien??
Kom dan eens kijken op ons Forum 
                    
http://www.2lions-site.nl  

2Lions the site to be for all your Dutch MOVIES and more

******************************************


DON T HIT AND RUN Niet gelijk afhaken als de FILM binnen is blijf seeden. 

Don`t quit after you finished the download, but keep seeding


There are fake torrents from uploaders who use our team name.
Those are not ours, or members from our team.
We 2Lions-Team are not responsible for the fake posts on our name

Wij 2Lions-Team zijn niet verantwoordelijk voor die zieke FAKE posten die op onze naam worden gedaan

Please check our site !!!
To the fakers Get a Live
 
      

 
 
 
